<?xml version="1.0" encoding="utf-8"?>
<!-- Generator: Adobe Illustrator 23.0.3, SVG Export Plug-In . SVG Version: 6.00 Build 0)  -->
<svg version="1.1" id="Слой_1" xmlns="http://www.w3.org/2000/svg" xmlns:xlink="http://www.w3.org/1999/xlink" x="0px" y="0px"
	 viewBox="0 0 257.9 50.4" style="enable-background:new 0 0 257.9 50.4;" xml:space="preserve">
<style type="text/css">
	.st0{fill-rule:evenodd;clip-rule:evenodd;}
</style>
<path class="st0" d="M217.1,12.4h8.9v20.4v16.4h-8.9v-1.8c-10.9,6.8-23.9,0.3-23.9-12.2V12.4h8.9v21.9c0,4.1,3.4,7.5,7.5,7.5
	c4.1,0,7.5-3.4,7.5-7.5V12.4z M16.8,40.4C24.4,29.5,19.3,37,35.7,13v27.4H16.8z M44.4,0h-8.8h-1.8C18.4,22.6,26.5,11,6.1,40.4H0v8.7
	l0,0h0h10.6h39.6v-8.8h-5.8V0.1V0L44.4,0z M72.3,11.2c2.7,0,5.2,0.5,7.5,1.5c2.3,1,4.4,2.4,6.2,4.2c1.8,1.8,3.2,3.9,4.1,6.3
	c1,2.4,1.5,4.9,1.5,7.7c0,3.6-0.9,6.9-2.7,9.8c-1.8,3-4.2,5.3-7.2,7.1c-1.5,0.9-3,1.5-4.7,1.9c-1.6,0.4-3.3,0.7-5.1,0.7
	c-3.5,0-6.8-0.9-9.7-2.6c-3-1.8-5.4-4.2-7.2-7.2c-1.8-3-2.7-6.2-2.7-9.7c0-2.7,0.5-5.3,1.6-7.7c1-2.4,2.4-4.5,4.2-6.2
	c1.8-1.8,3.9-3.1,6.3-4.2C66.9,11.8,69.6,11.2,72.3,11.2z M71.9,19.9c-0.7,0-1.4,0.1-2,0.2c-0.7,0.2-1.4,0.4-2.1,0.7
	c-1.4,0.6-2.5,1.4-3.4,2.4c-2,2.1-3.1,4.6-3.1,7.7c0,1.9,0.5,3.7,1.4,5.4c0.9,1.7,2.2,3,3.8,4c1.7,1,3.5,1.5,5.4,1.5
	c3.1,0,5.7-1,7.7-3.1c2-2.1,3-4.7,3-7.7c0-2-0.5-3.8-1.4-5.5c-0.9-1.7-2.2-3-3.9-4C75.7,20.4,73.9,19.9,71.9,19.9z M144.6,49.2
	l16.9-24.5L144.6,0h10.6l11.6,16.9L178.5,0h10.6l-17,24.7l17,24.5h-10.6l-11.7-16.7l-11.6,16.7H144.6z M122.3,49.2H115l-9.2-25v25.1
	H97V12.4h11.8l9.8,26.7l9.8-26.7h11.9v36.8h-8.8V24L122.3,49.2z M239.7,49.2v-29h-9.3v-7.8h27.5v7.8h-9.3v29H239.7z"/>
</svg>
